# xmcd CD database file
#
# Track frame offsets:
#	150
#	17275
#	30910
#	52282
#	67597
#	80985
#	110545
#	121937
#	136542
#	157522
#	176745
#	194742
#	210122
#	234870
#	252782
#	266575
#	285850
#
# Disc length: 3999 seconds
#
# Revision: 3
# Processed by: cddbd v1.4PL0 Copyright (c) Steve Scherf et al.
# Submitted via: CDex 1.50Beta7
#
DISCID=ce0f9d11
DTITLE=Clarence ''Gatemouth'' Brown - Texas Swing
DYEAR=1987
DGENRE=Blues
TTITLE0=Frosty
TTITLE1=Strollin' with Bones
TTITLE2=I Wonder
TTITLE3=Ain't That Dandy¿
TTITLE4=Baby, Take It Easy
TTITLE5=Sometimes I Slip
TTITLE6=I Feel Alright Again
TTITLE7=Alligator Boogaloo
TTITLE8=Dollar Got the Blues
TTITLE9=Near Baku
TTITLE10=Gate Walks to Board
TTITLE11=Information Blues
TTITLE12=Song for Renee
TTITLE13=Stranded
TTITLE14=Big Yard
TTITLE15=One More Mile
TTITLE16=Flippin' Out
EXTD=YEAR: 1987
EXTT0=
EXTT1=
EXTT2=
EXTT3=
EXTT4=
EXTT5=
EXTT6=
EXTT7=
EXTT8=
EXTT9=
EXTT10=
EXTT11=
EXTT12=
EXTT13=
EXTT14=
EXTT15=
EXTT16=
PLAYORDER=
